<mxfile host="Electron" modified="2024-04-01T12:36:44.722Z" agent="Mozilla/5.0 (Windows NT 10.0; Win64; x64) AppleWebKit/537.36 (KHTML, like Gecko) draw.io/21.7.5 Chrome/114.0.5735.289 Electron/25.8.1 Safari/537.36" etag="LZkrXPECSpJpsy1Xnn9h" version="21.7.5" type="device">
  <diagram name="Page-1" id="G_KTHql1rs0FBSvWdJj6">
    <mxGraphModel dx="810" dy="542" grid="1" gridSize="10" guides="1" tooltips="1" connect="1" arrows="1" fold="1" page="1" pageScale="1" pageWidth="1169" pageHeight="827" math="0" shadow="0">
      <root>
        <mxCell id="0" />
        <mxCell id="1" parent="0" />
        <mxCell id="OgGqO4CF7ydB3K6WWiV4-8" value="Connected Stations" style="group;fontSize=10;spacingTop=14;" vertex="1" connectable="0" parent="1">
          <mxGeometry x="540" y="501" width="78" height="18" as="geometry" />
        </mxCell>
        <mxCell id="OgGqO4CF7ydB3K6WWiV4-5" value="" style="rounded=0;whiteSpace=wrap;html=1;strokeWidth=4;" vertex="1" parent="OgGqO4CF7ydB3K6WWiV4-8">
          <mxGeometry x="9" y="4" width="60" height="10" as="geometry" />
        </mxCell>
        <mxCell id="OgGqO4CF7ydB3K6WWiV4-1" value="" style="ellipse;whiteSpace=wrap;html=1;aspect=fixed;strokeWidth=4;spacingTop=55;fontSize=10;fontFamily=Helvetica;fillColor=#FFFFFF;" vertex="1" parent="OgGqO4CF7ydB3K6WWiV4-8">
          <mxGeometry width="18" height="18" as="geometry" />
        </mxCell>
        <mxCell id="OgGqO4CF7ydB3K6WWiV4-4" value="" style="ellipse;whiteSpace=wrap;html=1;aspect=fixed;strokeWidth=4;spacingTop=55;fontSize=10;fontFamily=Helvetica;fillColor=#FFFFFF;" vertex="1" parent="OgGqO4CF7ydB3K6WWiV4-8">
          <mxGeometry x="60" width="18" height="18" as="geometry" />
        </mxCell>
        <mxCell id="OgGqO4CF7ydB3K6WWiV4-6" value="" style="rounded=0;whiteSpace=wrap;html=1;strokeColor=none;" vertex="1" parent="OgGqO4CF7ydB3K6WWiV4-8">
          <mxGeometry x="9" y="6" width="60" height="6" as="geometry" />
        </mxCell>
      </root>
    </mxGraphModel>
  </diagram>
</mxfile>
